{
    "asset": {
        "copyright": "2020 (c) Adobe Inc.",
        "generator": "Adobe Dimension - a39c749b7f1dd68e8fcb597e3575f0bb9d09bfc8",
        "version": "2.0"
    },
    "accessors": [
        {
            "bufferView": 0,
            "componentType": 5126,
            "count": 43680,
            "type": "VEC3",
            "max": [
                1.2246001958847047,
                0.1364002674818039,
                0.0
            ],
            "min": [
                0.008000016212463379,
                -0.0030000091064721348,
                -0.009999999776482582
            ]
        },
        {
            "bufferView": 1,
            "componentType": 5126,
            "count": 43680,
            "type": "VEC3"
        },
        {
            "bufferView": 2,
            "componentType": 5126,
            "count": 43680,
            "type": "VEC2"
        },
        {
            "bufferView": 3,
            "componentType": 5125,
            "count": 21870,
            "type": "SCALAR",
            "max": [
                43679.0
            ],
            "min": [
                2.0
            ]
        },
        {
            "bufferView": 4,
            "componentType": 5125,
            "count": 10905,
            "type": "SCALAR",
            "max": [
                43677.0
            ],
            "min": [
                1990.0
            ]
        },
        {
            "bufferView": 5,
            "componentType": 5125,
            "count": 10905,
            "type": "SCALAR",
            "max": [
                41958.0
            ],
            "min": [
                0.0
            ]
        },
        {
            "bufferView": 6,
            "componentType": 5126,
            "count": 36,
            "type": "VEC3",
            "max": [
                0.09999999403953552,
                0.19999998807907105,
                0.09999999403953552
            ],
            "min": [
                -0.10000000894069672,
                0.0,
                -0.09999999403953552
            ]
        },
        {
            "bufferView": 7,
            "componentType": 5126,
            "count": 36,
            "type": "VEC3"
        },
        {
            "bufferView": 8,
            "componentType": 5126,
            "count": 36,
            "type": "VEC2"
        },
        {
            "bufferView": 9,
            "componentType": 5125,
            "count": 36,
            "type": "SCALAR",
            "max": [
                35.0
            ],
            "min": [
                0.0
            ]
        }
    ],
    "bufferViews": [
        {
            "buffer": 0,
            "byteOffset": 0,
            "byteLength": 524160,
            "target": 34962
        },
        {
            "buffer": 0,
            "byteOffset": 524160,
            "byteLength": 524160,
            "target": 34962
        },
        {
            "buffer": 0,
            "byteOffset": 1048320,
            "byteLength": 349440,
            "target": 34962
        },
        {
            "buffer": 0,
            "byteOffset": 1397760,
            "byteLength": 87480,
            "target": 34963
        },
        {
            "buffer": 0,
            "byteOffset": 1485240,
            "byteLength": 43620,
            "target": 34963
        },
        {
            "buffer": 0,
            "byteOffset": 1528860,
            "byteLength": 43620,
            "target": 34963
        },
        {
            "buffer": 0,
            "byteOffset": 1572480,
            "byteLength": 432,
            "target": 34962
        },
        {
            "buffer": 0,
            "byteOffset": 1572912,
            "byteLength": 432,
            "target": 34962
        },
        {
            "buffer": 0,
            "byteOffset": 1573344,
            "byteLength": 288,
            "target": 34962
        },
        {
            "buffer": 0,
            "byteOffset": 1573632,
            "byteLength": 144,
            "target": 34963
        }
    ],
    "buffers": [
        {
            "byteLength": 1573776,
            "uri": "gatesText_binary.bin"
        }
    ],
    "cameras": [
        {
            "perspective": {
                "znear": 0.00002562201552791521,
                "yfov": 0.6024156808853149,
                "zfar": 2.0,
                "aspectRatio": 1.3333333730697632
            },
            "type": "perspective",
            "name": "render_camera"
        }
    ],
    "images": [
        {
            "name": "cement_grout_brushed_baseColor",
            "uri": "gatesText_images/cement_grout_brushed_baseColor.jpg",
            "mimeType": "image/jpeg"
        },
        {
            "name": "image_image",
            "uri": "gatesText_images/image_image.png",
            "mimeType": "image/png"
        },
        {
            "name": "cement_grout_brushed_normal",
            "uri": "gatesText_images/cement_grout_brushed_normal.png",
            "mimeType": "image/png"
        },
        {
            "name": "image_image_0",
            "uri": "gatesText_images/image_image_0.png",
            "mimeType": "image/png"
        },
        {
            "name": "american_walnut_crown_cut_protection_baseColor",
            "uri": "gatesText_images/american_walnut_crown_cut_protection_baseColor.jpg",
            "mimeType": "image/jpeg"
        },
        {
            "name": "image_image_1",
            "uri": "gatesText_images/image_image_1.png",
            "mimeType": "image/png"
        },
        {
            "name": "american_walnut_crown_cut_protection_normal",
            "uri": "gatesText_images/american_walnut_crown_cut_protection_normal.png",
            "mimeType": "image/png"
        },
        {
            "name": "taurillon_leather_regular_grain_raspberry_baseColor",
            "uri": "gatesText_images/taurillon_leather_regular_grain_raspberry_baseColor.jpg",
            "mimeType": "image/jpeg"
        },
        {
            "name": "image_image_2",
            "uri": "gatesText_images/image_image_2.png",
            "mimeType": "image/png"
        },
        {
            "name": "taurillon_leather_regular_grain_raspberry_normal",
            "uri": "gatesText_images/taurillon_leather_regular_grain_raspberry_normal.png",
            "mimeType": "image/png"
        }
    ],
    "materials": [
        {
            "pbrMetallicRoughness": {
                "baseColorFactor": [
                    0.6307569742202759,
                    0.6307569742202759,
                    0.6307569742202759,
                    1.0
                ],
                "metallicFactor": 0.0,
                "roughnessFactor": 0.4000000059604645
            },
            "name": "Default Material 3",
            "doubleSided": true
        },
        {
            "pbrMetallicRoughness": {
                "baseColorTexture": {
                    "index": 0
                },
                "metallicRoughnessTexture": {
                    "index": 1
                }
            },
            "normalTexture": {
                "index": 2
            },
            "name": "Cement",
            "doubleSided": true
        },
        {
            "pbrMetallicRoughness": {
                "baseColorFactor": [
                    0.008023192174732685,
                    0.29613831639289858,
                    0.29177069664001467,
                    1.0
                ],
                "metallicRoughnessTexture": {
                    "index": 3
                }
            },
            "name": "Plastic with Lattice Pattern",
            "doubleSided": true
        },
        {
            "pbrMetallicRoughness": {
                "baseColorFactor": [
                    0.6172069907188416,
                    0.6172069907188416,
                    0.6172069907188416,
                    1.0
                ],
                "roughnessFactor": 0.02199999988079071
            },
            "name": "Metal",
            "doubleSided": true
        },
        {
            "pbrMetallicRoughness": {
                "baseColorTexture": {
                    "index": 4
                },
                "metallicRoughnessTexture": {
                    "index": 5
                }
            },
            "normalTexture": {
                "index": 6
            },
            "name": "Walnut Wood",
            "doubleSided": true
        },
        {
            "pbrMetallicRoughness": {
                "baseColorTexture": {
                    "index": 7
                },
                "metallicRoughnessTexture": {
                    "index": 8
                }
            },
            "normalTexture": {
                "index": 9
            },
            "name": "Leather Grain",
            "doubleSided": true
        }
    ],
    "meshes": [
        {
            "name": "TextMesh#",
            "primitives": [
                {
                    "attributes": {
                        "TEXCOORD_0": 2,
                        "NORMAL": 1,
                        "POSITION": 0
                    },
                    "indices": 3,
                    "material": 1
                },
                {
                    "attributes": {
                        "POSITION": 0,
                        "NORMAL": 1,
                        "TEXCOORD_0": 2
                    },
                    "indices": 4,
                    "material": 1
                },
                {
                    "attributes": {
                        "TEXCOORD_0": 2,
                        "NORMAL": 1,
                        "POSITION": 0
                    },
                    "indices": 5,
                    "material": 1
                }
            ]
        },
        {
            "name": "PROCEDURAL_MESHES_CUBE#",
            "primitives": [
                {
                    "attributes": {
                        "POSITION": 6,
                        "NORMAL": 7,
                        "TEXCOORD_0": 8
                    },
                    "indices": 9,
                    "material": 2
                }
            ]
        },
        {
            "name": "PROCEDURAL_MESHES_CUBE#",
            "primitives": [
                {
                    "attributes": {
                        "TEXCOORD_0": 8,
                        "NORMAL": 7,
                        "POSITION": 6
                    },
                    "indices": 9,
                    "material": 3
                }
            ]
        },
        {
            "name": "PROCEDURAL_MESHES_CUBE#",
            "primitives": [
                {
                    "attributes": {
                        "TEXCOORD_0": 8,
                        "NORMAL": 7,
                        "POSITION": 6
                    },
                    "indices": 9,
                    "material": 4
                }
            ]
        },
        {
            "name": "PROCEDURAL_MESHES_CUBE#",
            "primitives": [
                {
                    "attributes": {
                        "POSITION": 6,
                        "NORMAL": 7,
                        "TEXCOORD_0": 8
                    },
                    "indices": 9,
                    "material": 5
                }
            ]
        }
    ],
    "nodes": [
        {
            "translation": [
                1.0394160747528077,
                0.5044049620628357,
                1.039415955543518
            ],
            "rotation": [
                -0.12059047073125839,
                0.379409521818161,
                0.04995020851492882,
                0.9159756302833557
            ],
            "scale": [
                1.0,
                1.0,
                0.9999999403953552
            ],
            "camera": 0,
            "name": "render_camera_n3d"
        },
        {
            "translation": [
                -0.46193400025367739,
                0.2556179165840149,
                0.41659754514694216
            ],
            "rotation": [
                0.0,
                0.36650118231773379,
                0.0,
                0.9304175972938538
            ],
            "scale": [
                1.0000001192092896,
                1.0,
                0.3055065870285034
            ],
            "mesh": 0,
            "name": "Text"
        },
        {
            "children": [
                3,
                4,
                5,
                6
            ],
            "name": "Group"
        },
        {
            "translation": [
                0.18447157740592957,
                0.0,
                0.06672642379999161
            ],
            "rotation": [
                0.0,
                -0.4067385792732239,
                0.0,
                0.9135445952415466
            ],
            "scale": [
                0.4377569258213043,
                0.43775686621665957,
                0.4377569258213043
            ],
            "mesh": 1,
            "name": "Cube 4"
        },
        {
            "translation": [
                0.10988130420446396,
                0.0,
                0.13394752144813538
            ],
            "rotation": [
                0.0,
                -0.4067385792732239,
                0.0,
                0.9135445952415466
            ],
            "scale": [
                0.4377569258213043,
                0.43775686621665957,
                0.4377569258213043
            ],
            "mesh": 2,
            "name": "Cube"
        },
        {
            "translation": [
                0.034985750913619998,
                0.0,
                0.20034702122211457
            ],
            "rotation": [
                0.0,
                -0.4067385792732239,
                0.0,
                0.9135445952415466
            ],
            "scale": [
                0.43775689601898196,
                0.43775689601898196,
                0.43775689601898196
            ],
            "mesh": 3,
            "name": "Cube 2"
        },
        {
            "translation": [
                0.10764630883932114,
                0.09339025616645813,
                0.14109444618225099
            ],
            "rotation": [
                0.0,
                -0.4067385792732239,
                0.0,
                0.9135445952415466
            ],
            "scale": [
                0.4377569258213043,
                0.3853206932544708,
                0.4377569258213043
            ],
            "mesh": 4,
            "name": "Cube 3"
        }
    ],
    "samplers": [
        {},
        {},
        {},
        {},
        {},
        {},
        {},
        {},
        {},
        {}
    ],
    "scenes": [
        {
            "nodes": [
                0,
                1,
                2
            ],
            "name": "scene"
        }
    ],
    "textures": [
        {
            "name": "cement_grout_brushed_material::baseColor::image",
            "sampler": 0,
            "source": 0
        },
        {
            "name": "image_image",
            "sampler": 1,
            "source": 1
        },
        {
            "name": "cement_grout_brushed_material::normal::image",
            "sampler": 2,
            "source": 2
        },
        {
            "name": "image_image",
            "sampler": 3,
            "source": 3
        },
        {
            "name": "american_walnut_crown_cut_protection_material::baseColor::image",
            "sampler": 4,
            "source": 4
        },
        {
            "name": "image_image",
            "sampler": 5,
            "source": 5
        },
        {
            "name": "american_walnut_crown_cut_protection_material::normal::image",
            "sampler": 6,
            "source": 6
        },
        {
            "name": "taurillon_leather_regular_grain_raspberry_material::baseColor::image",
            "sampler": 7,
            "source": 7
        },
        {
            "name": "image_image",
            "sampler": 8,
            "source": 8
        },
        {
            "name": "taurillon_leather_regular_grain_raspberry_material::normal::image",
            "sampler": 9,
            "source": 9
        }
    ],
    "scene": 0
}