{
    "asset": {
        "copyright": "2020 (c) Adobe Inc.",
        "generator": "Adobe Dimension - a39c749b7f1dd68e8fcb597e3575f0bb9d09bfc8",
        "version": "2.0",
        "extensions": {
            "KHR_xmp": {
                "packet": 0
            }
        }
    },
    "accessors": [
        {
            "bufferView": 0,
            "componentType": 5126,
            "count": 11076,
            "type": "VEC3",
            "max": [
                0.09999999403953552,
                0.19999998807907105,
                0.09999999403953552
            ],
            "min": [
                -0.09999999403953552,
                0.0,
                -0.09999999403953552
            ]
        },
        {
            "bufferView": 1,
            "componentType": 5126,
            "count": 11076,
            "type": "VEC3"
        },
        {
            "bufferView": 2,
            "componentType": 5126,
            "count": 11076,
            "type": "VEC2"
        },
        {
            "bufferView": 3,
            "componentType": 5125,
            "count": 11076,
            "type": "SCALAR",
            "max": [
                11075.0
            ],
            "min": [
                0.0
            ]
        }
    ],
    "bufferViews": [
        {
            "buffer": 0,
            "byteOffset": 0,
            "byteLength": 132912,
            "target": 34962
        },
        {
            "buffer": 0,
            "byteOffset": 132912,
            "byteLength": 132912,
            "target": 34962
        },
        {
            "buffer": 0,
            "byteOffset": 265824,
            "byteLength": 88608,
            "target": 34962
        },
        {
            "buffer": 0,
            "byteOffset": 354432,
            "byteLength": 44304,
            "target": 34963
        }
    ],
    "buffers": [
        {
            "byteLength": 398736,
            "uri": "scene_binary.bin"
        }
    ],
    "cameras": [
        {
            "perspective": {
                "znear": 0.000012578469068103005,
                "yfov": 0.6024156808853149,
                "zfar": 2.0,
                "aspectRatio": 1.3333333730697632
            },
            "type": "perspective",
            "name": "render_camera"
        }
    ],
    "images": [
        {
            "name": "cement_grout_brushed_baseColor",
            "uri": "scene_images/cement_grout_brushed_baseColor.jpg",
            "mimeType": "image/jpeg"
        },
        {
            "name": "image2_image2",
            "uri": "scene_images/image2_image2.png",
            "mimeType": "image/png"
        },
        {
            "name": "cement_grout_brushed_normal",
            "uri": "scene_images/cement_grout_brushed_normal.png",
            "mimeType": "image/png"
        }
    ],
    "materials": [
        {
            "pbrMetallicRoughness": {
                "baseColorTexture": {
                    "index": 0
                },
                "metallicRoughnessTexture": {
                    "index": 1
                }
            },
            "normalTexture": {
                "index": 2
            },
            "name": "Cement 2",
            "doubleSided": true
        }
    ],
    "meshes": [
        {
            "name": "PROCEDURAL_MESHES_CUBE#",
            "primitives": [
                {
                    "attributes": {
                        "POSITION": 0,
                        "NORMAL": 1,
                        "TEXCOORD_0": 2
                    },
                    "indices": 3,
                    "material": 0
                }
            ]
        }
    ],
    "nodes": [
        {
            "translation": [
                0.42390501499176028,
                0.27116474509239199,
                0.42390501499176028
            ],
            "rotation": [
                -0.12059047073125839,
                0.379409521818161,
                0.04995020851492882,
                0.9159756302833557
            ],
            "scale": [
                1.0000001192092896,
                1.0,
                1.0
            ],
            "camera": 0,
            "name": "render_camera_n3d"
        },
        {
            "translation": [
                -0.4273475408554077,
                0.0,
                -0.49904608726501467
            ],
            "rotation": [
                0.0,
                0.25037986040115359,
                0.0,
                0.9681476950645447
            ],
            "scale": [
                1.5870963335037232,
                1.1491477489471436,
                1.6281551122665406
            ],
            "mesh": 0,
            "name": "Cube"
        }
    ],
    "samplers": [
        {},
        {},
        {}
    ],
    "scenes": [
        {
            "nodes": [
                0,
                1
            ],
            "name": "scene"
        }
    ],
    "textures": [
        {
            "name": "cement_grout_brushed_material::baseColor::image2",
            "sampler": 0,
            "source": 0
        },
        {
            "name": "image2_image2",
            "sampler": 1,
            "source": 1
        },
        {
            "name": "cement_grout_brushed_material::normal::image2",
            "sampler": 2,
            "source": 2
        }
    ],
    "scene": 0,
    "extensions": {
        "KHR_xmp": {
            "@context": {
                "dc": "http://purl.org/dc/elements/1.1/"
            },
            "packets": [
                {
                    "dc:date": "2021-03-25T10:14:27.297-06:00",
                    "dc:format": "model/gltf+json",
                    "dc:title": "arTry.dn",
                    "xmp:CreatorTool": "Adobe Dimension"
                }
            ]
        }
    },
    "extensionsUsed": [
        "KHR_xmp"
    ]
}